<?xml version="1.0" encoding="UTF-8" standalone="no"?>
<svg
   xmlns:dc="http://purl.org/dc/elements/1.1/"
   xmlns:cc="http://creativecommons.org/ns#"
   xmlns:rdf="http://www.w3.org/1999/02/22-rdf-syntax-ns#"
   xmlns:svg="http://www.w3.org/2000/svg"
   xmlns="http://www.w3.org/2000/svg"
   xmlns:sodipodi="http://sodipodi.sourceforge.net/DTD/sodipodi-0.dtd"
   xmlns:inkscape="http://www.inkscape.org/namespaces/inkscape"
   sodipodi:docname="iribuIcon.svg"
   inkscape:version="1.0 (4035a4fb49, 2020-05-01)"
   id="svg8"
   version="1.1"
   viewBox="0 0 13.229166 13.229167"
   height="50"
   width="50">
  <defs
     id="defs2" />
  <sodipodi:namedview
     inkscape:window-maximized="1"
     inkscape:window-y="-8"
     inkscape:window-x="-8"
     inkscape:window-height="837"
     inkscape:window-width="1600"
     units="px"
     showgrid="false"
     inkscape:document-rotation="0"
     inkscape:current-layer="layer1"
     inkscape:document-units="mm"
     inkscape:cy="80.842687"
     inkscape:cx="60.565459"
     inkscape:zoom="2.8"
     inkscape:pageshadow="2"
     inkscape:pageopacity="0"
     borderopacity="1.0"
     bordercolor="#666666"
     pagecolor="#ff00ff"
     id="base" />
  <metadata
     id="metadata5">
    <rdf:RDF>
      <cc:Work
         rdf:about="">
        <dc:format>image/svg+xml</dc:format>
        <dc:type
           rdf:resource="http://purl.org/dc/dcmitype/StillImage" />
        <dc:title></dc:title>
      </cc:Work>
    </rdf:RDF>
  </metadata>
  <g
     id="layer1"
     inkscape:groupmode="layer"
     inkscape:label="Layer 1">
    <path
       id="path869"
       d="m 0.75163236,12.335504 c -0.1236083,-0.10401 -0.1213524,-0.1338 0.02959,-0.390754 l 0.05862,-0.09979 0.09577,0.07533 c 0.12412734,0.09764 0.12980904,0.279234 0.012986,0.41505 l -0.082784,0.09624 z m 0.41194604,-0.0344 -0.1024928,-0.08385 0.094075,-0.185647 c 0.051741,-0.102105 0.1072164,-0.185646 0.1232786,-0.185646 0.062709,0 0.1862154,0.171928 0.1862154,0.259225 0,0.08731 -0.1217575,0.283844 -0.1741239,0.281066 -0.013453,-6.83e-4 -0.07058,-0.03903 -0.1269518,-0.08515 z M 4.7141921,11.76029 c 0,-0.01009 0.1177958,-0.09988 0.2617683,-0.199546 0.2550378,-0.176561 0.3724784,-0.318734 0.5473024,-0.662565 0.089896,-0.176799 0.1296291,-0.172775 0.081314,0.0082 -0.073232,0.274368 0.062124,0.426448 0.3169781,0.356141 0.05837,-0.0161 0.1520149,-0.07952 0.2080959,-0.140917 0.083146,-0.09103 0.1207102,-0.107523 0.2035108,-0.08934 0.09372,0.02058 0.1142664,0.0032 0.2666839,-0.226046 0.2487266,-0.374048 0.4973413,-0.437974 0.4973413,-0.127879 0,0.167076 -0.1090752,0.369019 -0.2853234,0.52825 -0.1738641,0.157076 -0.2716948,0.186573 -0.5214394,0.157219 l -0.1872253,-0.02201 -0.1549175,0.179848 c -0.1288093,0.14954 -0.1754331,0.179849 -0.2766636,0.179849 -0.1281552,0 -0.2714122,-0.130787 -0.2714122,-0.247786 0,-0.03633 -0.039473,-0.0096 -0.1071766,0.07251 -0.077783,0.09437 -0.154525,0.141629 -0.2798213,0.172337 -0.094954,0.02327 -0.2010782,0.0508 -0.2358302,0.06117 -0.034752,0.01037 -0.063185,0.0106 -0.063185,5.46e-4 z m 2.0944455,-0.7899 c 0.1625567,-0.110698 0.2148441,-0.199189 0.1441246,-0.243918 -0.1047753,-0.06627 -0.279899,0.04837 -0.4002203,0.261971 -0.053444,0.09488 0.1068496,0.08358 0.2560957,-0.01805 z m 1.3359371,0.700911 C 8.0080224,11.534745 7.9840513,11.349156 8.0339465,10.814774 8.0941529,10.169971 8.1478266,9.8638197 8.2392955,9.6434957 8.3395169,9.4020843 8.3408843,9.4458495 8.2539493,10.112542 c -0.037524,0.287764 -0.063253,0.528179 -0.057178,0.534255 0.033061,0.03306 0.9149563,-0.9650553 1.3490573,-1.5268387 l 0.0837,-0.108318 -0.02298,0.108318 c -0.04779,0.225233 -0.31323,0.5928204 -0.856308,1.1858467 -0.305858,0.333989 -0.3178094,0.382933 -0.09383,0.38421 0.05331,2.73e-4 0.209133,0.02416 0.346269,0.053 1.0214244,0.214863 1.7612374,0.136883 2.4603134,-0.259329 0.420465,-0.238307 0.647019,-0.447543 0.675165,-0.6235553 0.01209,-0.07563 0.0701,-0.208114 0.128892,-0.294415 l 0.106903,-0.1569126 -0.0232,0.1263721 c -0.05203,0.2834305 -0.130354,0.4999398 -0.231243,0.6392128 -0.136876,0.188952 -0.54124,0.536899 -0.822548,0.707784 -0.757248,0.460002 -1.8355554,0.547416 -2.3079594,0.187097 l -0.117021,-0.08926 -0.0608,0.189257 c -0.08048,0.250506 -0.210121,0.446761 -0.3524385,0.533539 -0.1536101,0.09366 -0.1929403,0.08972 -0.3141677,-0.03151 z m 0.5284175,-0.496164 c 0.08306,-0.126766 0.03292,-0.223639 -0.1398199,-0.270154 -0.1990852,-0.05361 -0.3167004,-0.002 -0.3167004,0.13897 0,0.05621 0.02031,0.128298 0.045132,0.160206 0.091743,0.117929 0.3259273,0.101409 0.4113883,-0.02902 z m -8.53339764,0.52335 c -0.1486972,-0.05501 -0.1713974,-0.248435 -0.1018329,-0.867722 0.054768,-0.48757 0.1721382,-0.9737153 0.2228419,-0.9230113 0.00907,0.0091 -0.00876,0.1976043 -0.039633,0.4189523 -0.063461,0.454996 -0.073111,0.854589 -0.021411,0.886543 0.019097,0.0118 0.066527,-0.04005 0.1054017,-0.115214 0.081278,-0.157168 0.3706247,-0.446815 0.5238773,-0.524423 0.094214,-0.04771 0.1258011,-0.04572 0.32495374,0.02053 0.1855698,0.06172 0.3151884,0.07349 0.8163446,0.07409 0.5478524,6.82e-4 0.6218737,-0.0072 0.9207024,-0.09842 0.4380127,-0.133623 0.8326484,-0.333307 1.4016989,-0.7092553 0.509786,-0.3367936 0.706629,-0.4496093 0.7349952,-0.4212427 0.0391,0.0391 -0.1166172,0.2910807 -0.213278,0.3451267 -0.056691,0.0317 -0.3582984,0.2337423 -0.6702385,0.4489863 -0.639907,0.441547 -0.9981511,0.62767 -1.4698129,0.763638 -0.5760558,0.166061 -1.4474605,0.155574 -1.81392814,-0.02183 -0.1604452,-0.07767 -0.165964,-0.07793 -0.285636,-0.01348 -0.2195066,0.118213 -0.2493086,0.234298 -0.06015,0.234298 0.084573,0 0.090674,0.0099 0.070006,0.113203 -0.054099,0.270498 -0.2656211,0.455552 -0.4449021,0.389232 z m 3.56237404,-0.09403 c 0.2227738,-0.180743 0.4896631,-0.454756 0.4525808,-0.464662 -0.019858,-0.0053 -0.078995,-0.01905 -0.131415,-0.03054 -0.052419,-0.01149 -0.1051683,-0.04659 -0.1172187,-0.078 -0.027196,-0.07087 0.1051027,-0.386183 0.1968885,-0.469248 0.063379,-0.05736 0.074079,-0.05748 0.1591382,-0.0017 0.077144,0.05055 0.09119,0.08722 0.09119,0.238093 0,0.195972 -0.1072756,0.521253 -0.2185665,0.662736 -0.059735,0.07594 -0.2320855,0.154614 -0.503553,0.22986 -0.029788,0.0083 0.00214,-0.03067 0.070956,-0.0865 z m 3.5468636,0.05375 c -0.063326,-0.06333 -0.052971,-0.229173 0.023873,-0.382357 0.03696,-0.07368 0.060925,-0.151421 0.05326,-0.172763 -0.014418,-0.04013 0.1599175,-0.448626 0.191461,-0.448626 0.06805,0 0.1717967,0.09771 0.2159522,0.20339 0.144302,0.345365 -0.2644213,1.02048 -0.4845462,0.800356 z m 0.2996793,-0.313798 c 0,-0.114313 -0.100081,-0.179021 -0.1775036,-0.114765 -0.031452,0.0261 -0.057185,0.08712 -0.057185,0.135591 0,0.07768 0.013914,0.08679 0.1173436,0.07682 0.096517,-0.0093 0.117345,-0.02664 0.117345,-0.09764 z m 5.0367825,0.331484 c 0,-0.01678 0.09749,-0.116318 0.216636,-0.221198 0.119151,-0.104879 0.216636,-0.214057 0.216636,-0.242617 0,-0.02856 -0.05451,-0.112902 -0.121137,-0.187427 l -0.121139,-0.135502 0.09406,-0.209794 0.09406,-0.209797 0.116324,0.113792 c 0.190036,0.185897 0.197189,0.420568 0.02333,0.765579 -0.05942,0.117923 -0.128024,0.192067 -0.221213,0.239083 -0.179277,0.09045 -0.297556,0.125382 -0.297556,0.08788 z M 4.7027263,11.221827 c 0.022899,-0.624286 0.047738,-0.798628 0.1403515,-0.985081 l 0.088431,-0.178032 -0.015419,0.541589 c -0.012508,0.439369 -0.03005,0.580644 -0.092943,0.748512 -0.042639,0.113808 -0.09022,0.214769 -0.1057363,0.224359 -0.015516,0.0096 -0.022125,-0.148517 -0.014684,-0.351347 z m 7.5753707,0.264421 c 0.01493,-0.06798 0.0389,-0.343875 0.05325,-0.613093 0.02052,-0.3849 0.04292,-0.527224 0.104826,-0.666102 0.0433,-0.09714 0.08357,-0.170252 0.0895,-0.162476 0.0059,0.0078 -0.0011,0.265975 -0.01566,0.57378 -0.02696,0.570552 -0.0866,0.848361 -0.202841,0.944836 -0.04971,0.04126 -0.05308,0.03235 -0.02907,-0.07695 z M 8.7941672,9.8467087 c 0,-0.03862 0.447816,-0.5614494 0.465715,-0.5437256 0.02407,0.023838 -0.166948,0.2800636 -0.320772,0.4302696 -0.07972,0.07784 -0.144943,0.128898 -0.144943,0.113456 z M 10.218664,9.4526168 c -0.09295,-0.079951 -0.09428,-0.086514 -0.04197,-0.2076102 0.0297,-0.068776 0.07881,-0.1575444 0.109112,-0.1972608 0.05469,-0.071665 0.05581,-0.071549 0.148277,0.015321 0.113685,0.1068005 0.120511,0.247089 0.01834,0.3769764 -0.09133,0.1161005 -0.112101,0.1172185 -0.233757,0.012569 z m 0.420979,-0.039478 -0.08073,-0.085931 0.07863,-0.1672702 c 0.04325,-0.092 0.09285,-0.1760626 0.110238,-0.1868077 0.0523,-0.032324 0.212746,0.1551877 0.212746,0.2486353 0,0.098089 -0.125966,0.2773047 -0.19491,0.2773047 -0.02488,0 -0.08157,-0.038669 -0.125973,-0.085931 z m 1.118908,-0.1087206 -0.08111,-0.086333 0.09499,-0.1874532 c 0.09093,-0.1794372 0.09837,-0.1852192 0.174104,-0.1351903 0.12518,0.082698 0.157414,0.2199874 0.08655,0.3685989 -0.07155,0.1500458 -0.159374,0.1629634 -0.274536,0.040379 z m -1.327039,-0.396649 -0.09977,-0.085816 0.06723,-0.1490796 c 0.100079,-0.2219334 0.148034,-0.2487839 0.258858,-0.1449366 0.0749,0.07018 0.08864,0.1095639 0.0727,0.2083594 -0.01894,0.1173981 -0.111779,0.2572911 -0.170748,0.2572911 -0.01567,0 -0.07339,-0.038618 -0.128265,-0.085818 z M 5.3220857,7.1912181 C 5.0518328,7.1047889 4.8810213,6.9995756 4.648993,6.7766201 4.2977327,6.4390924 4.1364966,6.0493404 4.1364966,5.537774 c 0,-0.8467712 0.5861767,-1.5315589 1.4357122,-1.6772379 C 6.1143275,3.7675731 6.6978647,3.9664646 7.0735502,4.3722512 8.1126082,5.494556 7.3425198,7.2686066 5.8206471,7.2585588 5.6412314,7.2573288 5.446848,7.2311188 5.3220857,7.1912181 Z M 9.7690282,5.5401225 C 8.3519051,4.3501346 7.2072285,3.6237829 6.3696098,3.3830311 5.354516,3.0912694 4.2083841,3.2194304 3.4618378,3.7081828 3.169326,3.8996848 2.7610977,4.3144152 2.6218218,4.561578 2.5574787,4.6757639 2.4897029,4.7691882 2.4712093,4.7691882 c -0.02045,0 -0.02971,-0.7133932 -0.023633,-1.8207361 0.00975,-1.7766079 0.011804,-1.8232061 0.08477,-1.922643 0.041129,-0.056049 0.1304905,-0.13031578 0.1985829,-0.16503768 0.1153499,-0.058818 0.3634273,-0.063132 3.6327602,-0.063185 2.3915788,-3.82e-5 3.5413228,0.012173 3.6105978,0.038348 0.1505208,0.056869 0.2959548,0.21118548 0.3361808,0.35671028 0.05094,0.1842912 0.002,4.7328898 -0.05091,4.7291998 -0.02156,-0.0015 -0.242304,-0.17328 -0.4905328,-0.3817213 z"
       style="fill:#ffffff;fill-opacity:1;stroke-width:0.0361059" />
  </g>
</svg>
