<?xml version="1.0" encoding="UTF-8" standalone="no"?>
<svg
   xmlns:dc="http://purl.org/dc/elements/1.1/"
   xmlns:cc="http://creativecommons.org/ns#"
   xmlns:rdf="http://www.w3.org/1999/02/22-rdf-syntax-ns#"
   xmlns:svg="http://www.w3.org/2000/svg"
   xmlns="http://www.w3.org/2000/svg"
   xmlns:sodipodi="http://sodipodi.sourceforge.net/DTD/sodipodi-0.dtd"
   xmlns:inkscape="http://www.inkscape.org/namespaces/inkscape"
   sodipodi:docname="rooya.svg"
   inkscape:version="1.0 (4035a4fb49, 2020-05-01)"
   id="svg8"
   version="1.1"
   viewBox="0 0 13.229166 13.229167"
   height="50"
   width="50">
  <defs
     id="defs2" />
  <sodipodi:namedview
     inkscape:window-maximized="1"
     inkscape:window-y="-8"
     inkscape:window-x="-8"
     inkscape:window-height="837"
     inkscape:window-width="1600"
     units="px"
     showgrid="false"
     inkscape:document-rotation="0"
     inkscape:current-layer="layer1"
     inkscape:document-units="mm"
     inkscape:cy="25.609038"
     inkscape:cx="17.736331"
     inkscape:zoom="7.9195959"
     inkscape:pageshadow="2"
     inkscape:pageopacity="0"
     borderopacity="1.0"
     bordercolor="#666666"
     pagecolor="#ff00ff"
     id="base" />
  <metadata
     id="metadata5">
    <rdf:RDF>
      <cc:Work
         rdf:about="">
        <dc:format>image/svg+xml</dc:format>
        <dc:type
           rdf:resource="http://purl.org/dc/dcmitype/StillImage" />
        <dc:title></dc:title>
      </cc:Work>
    </rdf:RDF>
  </metadata>
  <g
     id="layer1"
     inkscape:groupmode="layer"
     inkscape:label="Layer 1">
    <path
       style="fill:#fbd69f;stroke-width:0.0070603"
       d="m 2.1656349,11.25163 -0.01345,-0.01589 0.015886,0.01345 c 0.014928,0.01264 0.0191,0.01832 0.01345,0.01832 -0.00134,0 -0.00849,-0.0071 -0.015886,-0.01589 z m -0.077663,-0.07766 -0.01345,-0.01589 0.015886,0.01345 c 0.014929,0.01264 0.0191,0.01832 0.01345,0.01832 -0.00134,0 -0.00849,-0.0071 -0.015886,-0.01589 z M 1.87468,10.656797 c 1.459e-4,-0.01165 0.00173,-0.01556 0.00352,-0.0087 0.00179,0.0069 0.00167,0.0164 -2.627e-4,0.02118 -0.00193,0.0048 -0.0034,-8.42e-4 -0.00325,-0.01249 z M 6.9743647,9.3471035 c 0.00703,-0.00777 0.014368,-0.01412 0.016309,-0.01412 0.00194,0 -0.00222,0.00635 -0.00925,0.01412 -0.00703,0.00777 -0.014368,0.014121 -0.016309,0.014121 -0.00194,0 0.00222,-0.00635 0.00925,-0.014121 z M 3.9419694,9.2870907 c 0.00912,-0.00971 0.018171,-0.017651 0.020112,-0.017651 0.00194,0 -0.00393,0.00794 -0.013052,0.017651 -0.00912,0.00971 -0.018171,0.017651 -0.020112,0.017651 -0.00194,0 0.00393,-0.00794 0.013052,-0.017651 z M 4.0655243,9.1564743 c 0.030883,-0.031065 0.05774,-0.056482 0.059681,-0.056482 0.00194,0 -0.021738,0.025417 -0.052621,0.056482 -0.030883,0.031066 -0.05774,0.056483 -0.059681,0.056483 -0.00194,0 0.021738,-0.025417 0.052621,-0.056483 z M 4.1855495,9.043509 c 0.00703,-0.00777 0.014368,-0.014121 0.016309,-0.014121 0.00194,0 -0.00222,0.00635 -0.00925,0.014121 -0.00703,0.00777 -0.014367,0.014121 -0.016309,0.014121 -0.00194,0 0.00222,-0.00635 0.00925,-0.014121 z M 6.5525121,8.8411435 c 0.00485,-0.00196 0.012797,-0.00196 0.017651,0 0.00485,0.00196 8.839e-4,0.00356 -0.00883,0.00356 -0.00971,0 -0.013679,-0.0016 -0.00883,-0.00356 z m 0.2719558,-2.084e-4 c 0.00687,-0.00179 0.016401,-0.00167 0.021181,2.501e-4 0.00478,0.00193 -8.422e-4,0.0034 -0.01249,0.00326 -0.011649,-1.251e-4 -0.015561,-0.00173 -0.00869,-0.00352 z M 3.1876327,8.6128388 c 0,-0.00971 0.0016,-0.01368 0.00356,-0.00883 0.00196,0.00485 0.00196,0.012797 0,0.017651 -0.00196,0.00485 -0.00356,8.839e-4 -0.00356,-0.00883 z m 1.9528212,-0.018797 c 0.00485,-0.00196 0.012797,-0.00196 0.017651,0 0.00485,0.00196 8.839e-4,0.00356 -0.00883,0.00356 -0.00971,0 -0.013679,-0.0016 -0.00883,-0.00356 z m 0.197688,0 c 0.00485,-0.00196 0.012797,-0.00196 0.017651,0 0.00485,0.00196 8.839e-4,0.00356 -0.00883,0.00356 -0.00971,0 -0.01368,-0.0016 -0.00883,-0.00356 z M 3.1810956,8.4928129 c 0,-0.013591 0.00145,-0.019151 0.00323,-0.012355 0.00178,0.0068 0.00178,0.017915 0,0.024711 -0.00178,0.0068 -0.00323,0.00123 -0.00323,-0.012355 z M 9.1465195,8.2386407 c 0,-0.00971 0.0016,-0.013679 0.00356,-0.00883 0.00196,0.00485 0.00196,0.012797 0,0.017651 -0.00196,0.00485 -0.00356,8.84e-4 -0.00356,-0.00883 z M 3.1812381,8.1927379 c 7.92e-5,-0.015533 0.00152,-0.021056 0.00321,-0.012273 0.00169,0.00878 0.00162,0.021491 -1.418e-4,0.028241 -0.00177,0.00675 -0.00315,-4.378e-4 -0.00307,-0.015968 z M 9.1394589,8.146846 c 0,-0.00971 0.0016,-0.01368 0.00356,-0.00883 0.00196,0.00485 0.00196,0.012797 0,0.017651 -0.00196,0.00485 -0.00356,8.84e-4 -0.00356,-0.00883 z M 3.1876327,8.0762423 c 0,-0.00971 0.0016,-0.013679 0.00356,-0.00883 0.00196,0.00485 0.00196,0.012797 0,0.017651 -0.00196,0.00485 -0.00356,8.839e-4 -0.00356,-0.00883 z M 11.350589,6.6006316 c 0,-0.029124 0.0012,-0.041038 0.0028,-0.026476 0.0015,0.014562 0.0015,0.038391 0,0.052952 -0.0015,0.014562 -0.0028,0.00265 -0.0028,-0.026476 z M 4.0302227,6.0781663 c 0.00703,-0.00777 0.014368,-0.014121 0.016309,-0.014121 0.00194,0 -0.00222,0.00635 -0.00925,0.014121 -0.00703,0.00777 -0.014368,0.014121 -0.016309,0.014121 -0.00194,0 0.00222,-0.00635 0.00925,-0.014121 z M 4.129067,5.9722612 c 0.023056,-0.023299 0.043508,-0.042362 0.04545,-0.042362 0.00194,0 -0.015334,0.019063 -0.038389,0.042362 -0.023056,0.023299 -0.043508,0.042362 -0.04545,0.042362 -0.00194,0 0.015334,-0.019063 0.03839,-0.042362 z m 6.964598,0.00176 -0.02433,-0.026476 0.02648,0.024331 c 0.01456,0.013382 0.02648,0.025296 0.02648,0.026476 0,0.00539 -0.006,2.918e-4 -0.02862,-0.024331 z M 7.768113,5.0703017 7.750997,5.0508856 7.770413,5.0680026 c 0.010679,0.00941 0.019416,0.018151 0.019416,0.019416 0,0.00554 -0.00572,0.00103 -0.021715,-0.017116 z M 7.701131,4.9961677 7.680394,4.9732217 7.70334,4.9939587 c 0.021389,0.01933 0.026191,0.025155 0.020736,0.025155 -0.00121,0 -0.011541,-0.010326 -0.022945,-0.022946 z M 7.5214463,4.8090692 7.4191631,4.7049291 7.5233025,4.8072126 c 0.096742,0.095019 0.1073354,0.1059964 0.1022828,0.1059964 -0.00102,0 -0.047883,-0.046863 -0.104139,-0.1041398 z M 7.3198748,4.6007889 7.299138,4.577843 7.322084,4.59858 c 0.021389,0.019329 0.026191,0.025155 0.020737,0.025155 -0.00121,0 -0.011541,-0.010326 -0.022946,-0.022946 z m -0.07083,-0.077664 -0.01345,-0.015886 0.015886,0.01345 c 0.014928,0.012639 0.0191,0.018322 0.01345,0.018322 -0.00134,0 -0.00849,-0.00715 -0.015886,-0.015886 z m -0.049422,-0.056483 -0.01345,-0.015886 0.015886,0.01345 c 0.014928,0.012639 0.0191,0.018322 0.01345,0.018322 -0.00134,0 -0.00849,-0.00715 -0.015886,-0.015886 z M 3.5762102,4.1683444 c 1.251e-4,-0.011649 0.00173,-0.01556 0.00351,-0.00869 0.00179,0.00687 0.00167,0.016401 -2.502e-4,0.021181 -0.00193,0.00478 -0.0034,-8.406e-4 -0.00326,-0.01249 z m 2.502e-4,-0.3706678 c 0,-0.013591 0.00146,-0.019151 0.00323,-0.012356 0.00178,0.0068 0.00178,0.017916 0,0.024711 -0.00178,0.0068 -0.00323,0.00124 -0.00323,-0.012356 z m 0.00654,-0.1059051 c 0,-0.00971 0.0016,-0.013679 0.00356,-0.00883 0.00196,0.00485 0.00196,0.012797 0,0.017651 -0.00196,0.00485 -0.00356,8.827e-4 -0.00356,-0.00883 z M 1.8744183,2.5762378 c 0,-0.00971 0.0016,-0.013679 0.00356,-0.00883 0.00196,0.00485 0.00196,0.012797 0,0.017651 -0.00196,0.00485 -0.00356,8.827e-4 -0.00356,-0.00883 z M 2.1274741,2.0149409 c 0.00912,-0.00971 0.018171,-0.017651 0.020112,-0.017651 0.00194,0 -0.00393,0.00794 -0.013052,0.017651 -0.00912,0.00971 -0.018171,0.017651 -0.020112,0.017651 -0.00194,0 0.00393,-0.00794 0.013052,-0.017651 z M 2.7434846,1.7521815 c 0.010679,-0.00162 0.028153,-0.00162 0.038832,0 0.010679,0.00162 0.00194,0.00294 -0.019416,0.00294 -0.021357,0 -0.030095,-0.00132 -0.019416,-0.00294 z"
       id="path62" />
    <path
       style="fill:#b0e3cc;stroke-width:0.0070603"
       d="m 2.5882925,13.225398 c 0.00687,-0.0018 0.016401,-0.0017 0.021181,2.5e-4 0.00478,0.0019 -8.406e-4,0.0034 -0.01249,0.0033 -0.011649,-1.25e-4 -0.01556,-0.0017 -0.00869,-0.0035 z m 0.3069884,2.08e-4 c 0.00485,-0.002 0.012797,-0.002 0.017651,0 0.00485,0.002 8.827e-4,0.0036 -0.00883,0.0036 -0.00971,0 -0.013679,-0.0016 -0.00883,-0.0036 z m -1.9087148,-0.674884 -0.0134498,-0.01589 0.0158857,0.01345 c 0.0149285,0.01264 0.0190998,0.01832 0.0134498,0.01832 -0.00134,0 -0.008488,-0.0071 -0.0158857,-0.01589 z m 1.6404237,-0.02409 c 0.00485,-0.002 0.012797,-0.002 0.017651,0 0.00485,0.002 8.827e-4,0.0036 -0.00883,0.0036 -0.00971,0 -0.013679,-0.0016 -0.00883,-0.0036 z m 0.2295938,-2.08e-4 c 0.00687,-0.0018 0.016401,-0.0017 0.021181,2.5e-4 0.00478,0.0019 -8.406e-4,0.0034 -0.01249,0.0033 -0.011649,-1.25e-4 -0.01556,-0.0017 -0.00869,-0.0035 z m -2.0569788,-0.162789 -0.0171164,-0.01942 0.0194158,0.01712 c 0.018147,0.016 0.0226536,0.02172 0.0171164,0.02172 -0.001265,0 -0.0100018,-0.0087 -0.0194158,-0.01942 z m 0.6495469,-0.338896 -0.017116,-0.01942 0.019416,0.01712 c 0.018147,0.016 0.022654,0.02172 0.017116,0.02172 -0.00126,0 -0.010002,-0.0087 -0.019416,-0.01942 z m -0.1270853,-0.127086 -0.017116,-0.01942 0.019416,0.01712 c 0.018147,0.016 0.022653,0.02172 0.017116,0.02172 -0.00126,0 -0.010002,-0.0087 -0.019416,-0.01942 z m 6.0547349,-0.877247 c 0.00703,-0.0078 0.014368,-0.01412 0.016309,-0.01412 0.00194,0 -0.00222,0.0064 -0.00925,0.01412 -0.00703,0.0078 -0.014368,0.01412 -0.016309,0.01412 -0.00194,0 0.00222,-0.0064 0.00925,-0.01412 z m 0.067073,-0.06001 c 0.00912,-0.0097 0.01817,-0.01765 0.020112,-0.01765 0.00194,0 -0.00393,0.0079 -0.013052,0.01765 -0.00912,0.0097 -0.018171,0.01765 -0.020112,0.01765 -0.00194,0 0.00393,-0.0079 0.013052,-0.01765 z M 7.5780198,10.83331 c 0.032835,-0.03301 0.061289,-0.06001 0.06323,-0.06001 0.00194,0 -0.023335,0.02701 -0.05617,0.06001 -0.032835,0.03301 -0.061289,0.06001 -0.06323,0.06001 -0.00194,0 0.023335,-0.02701 0.05617,-0.06001 z M 0.12398914,10.73093 c 0,-0.01359 0.001453,-0.01915 0.003229,-0.01236 0.001776,0.0068 0.001776,0.01792 0,0.02471 -0.001776,0.0068 -0.003229,0.0012 -0.003229,-0.01236 z M 7.7051049,10.69916 c 0.00912,-0.0097 0.018171,-0.01765 0.020112,-0.01765 0.00194,0 -0.00393,0.0079 -0.013052,0.01765 -0.00912,0.0097 -0.01817,0.01765 -0.020112,0.01765 -0.00194,0 0.00393,-0.0079 0.013052,-0.01765 z M 0.82295805,10.68857 c 0,-0.01359 0.001453,-0.01915 0.003229,-0.01236 0.001776,0.0068 0.001776,0.01792 0,0.02471 -0.001776,0.0068 -0.003229,0.0012 -0.003229,-0.01236 z M 6.8967013,10.48382 c 0.00703,-0.0078 0.014368,-0.01412 0.016309,-0.01412 0.00194,0 -0.00222,0.0064 -0.00925,0.01412 -0.00703,0.0078 -0.014368,0.01412 -0.016309,0.01412 -0.00194,0 0.00222,-0.0064 0.00925,-0.01412 z m 0.091784,-0.08472 c 0.019124,-0.01942 0.036359,-0.0353 0.038301,-0.0353 0.00194,0 -0.012117,0.01589 -0.031241,0.0353 -0.019124,0.01942 -0.036359,0.0353 -0.038301,0.0353 -0.00194,0 0.012117,-0.01589 0.031241,-0.0353 z m 0.1161996,-0.11473 c 0.029258,-0.03117 0.035596,-0.03678 0.035596,-0.03148 0,0.0011 -0.015091,0.01623 -0.033536,0.03354 l -0.033536,0.03148 z m 0.081488,-0.09002 c 0.00703,-0.0078 0.014368,-0.01412 0.016309,-0.01412 0.00194,0 -0.00222,0.0064 -0.00925,0.01412 -0.00703,0.0078 -0.014368,0.01412 -0.016309,0.01412 -0.00194,0 0.00222,-0.0064 0.00925,-0.01412 z M 3.6614804,8.85994 c 0,-0.017474 0.00138,-0.024623 0.00306,-0.015886 0.00168,0.00874 0.00168,0.023034 0,0.031771 -0.00168,0.00874 -0.00306,0.00159 -0.00306,-0.015885 z M 8.5539778,8.6481298 c 0,-0.013591 0.00146,-0.019151 0.00323,-0.012355 0.00178,0.0068 0.00178,0.017915 0,0.024711 -0.00178,0.0068 -0.00323,0.00123 -0.00323,-0.012356 z m -0.706291,-0.00353 c 1.251e-4,-0.01165 0.00173,-0.015561 0.00351,-0.00869 0.00179,0.00687 0.00167,0.016401 -2.502e-4,0.021181 -0.00193,0.00478 -0.0034,-8.423e-4 -0.00326,-0.01249 z M 3.6615767,8.6234172 c 4.17e-5,-0.019416 0.00143,-0.026521 0.00305,-0.015789 0.00162,0.010732 0.00158,0.026618 -8.33e-5,0.035301 -0.00168,0.00868 -0.003,-8.34e-5 -0.00295,-0.019512 z m 8.5515243,-0.052952 c 0.007,-0.00777 0.01437,-0.014121 0.01631,-0.014121 0.0019,0 -0.0022,0.00635 -0.0092,0.014121 -0.007,0.00777 -0.01437,0.01412 -0.01631,0.01412 -0.0019,0 0.0022,-0.00635 0.0092,-0.01412 z M 3.9278486,8.5386932 c 0.00912,-0.00971 0.018171,-0.017651 0.020112,-0.017651 0.00194,0 -0.00393,0.00794 -0.013052,0.017651 -0.00912,0.00971 -0.018171,0.017651 -0.020112,0.017651 -0.00194,0 0.00393,-0.00794 0.013052,-0.017651 z M 12.333127,8.457499 c 0.03479,-0.034949 0.06484,-0.063543 0.06678,-0.063543 0.0019,0 -0.02493,0.028594 -0.05972,0.063543 -0.03479,0.034949 -0.06484,0.063543 -0.06678,0.063543 -0.0019,0 0.02493,-0.028594 0.05972,-0.063543 z M 3.6677325,8.47162 c 0,-0.00971 0.0016,-0.013679 0.00356,-0.00883 0.00196,0.00485 0.00196,0.012797 0,0.017651 -0.00196,0.00485 -0.00356,8.839e-4 -0.00356,-0.00883 z M 4.0478738,8.418668 c 0.00912,-0.00971 0.018171,-0.017651 0.020112,-0.017651 0.00194,0 -0.00393,0.00794 -0.013052,0.017651 -0.00912,0.00971 -0.018171,0.017651 -0.020112,0.017651 -0.00194,0 0.00393,-0.00794 0.013052,-0.017651 z M 8.5541204,8.376306 c 8.34e-5,-0.015533 0.00153,-0.021056 0.00321,-0.012273 0.00169,0.00878 0.00163,0.021491 -1.251e-4,0.028241 -0.00177,0.00675 -0.00315,-4.378e-4 -0.00307,-0.015968 z M 12.446091,8.337474 c 0.007,-0.00777 0.01437,-0.014121 0.01631,-0.014121 0.0019,0 -0.0022,0.00635 -0.0092,0.014121 -0.007,0.00777 -0.01437,0.01412 -0.01631,0.01412 -0.0019,0 0.0022,-0.00635 0.0092,-0.01412 z M 7.8476868,8.3198224 c 1.251e-4,-0.01165 0.00173,-0.01556 0.00351,-0.00869 0.00179,0.00687 0.00167,0.016402 -2.502e-4,0.021181 -0.00193,0.00478 -0.0034,-8.423e-4 -0.00326,-0.01249 z m 0.6987076,-0.067073 c 0,-0.00971 0.0016,-0.01368 0.00356,-0.00883 0.00196,0.00485 0.00196,0.012797 0,0.017651 -0.00196,0.00485 -0.00356,8.839e-4 -0.00356,-0.00883 z m -1.997278,-0.026074 c 0.00687,-0.00179 0.016401,-0.00167 0.021181,2.502e-4 0.00478,0.00193 -8.422e-4,0.0034 -0.01249,0.00326 -0.01165,-1.251e-4 -0.015561,-0.00173 -0.00869,-0.00352 z m 0.1623869,0 c 0.00687,-0.00179 0.016401,-0.00167 0.021181,2.502e-4 0.00478,0.00193 -8.422e-4,0.0034 -0.01249,0.00326 -0.011649,-1.251e-4 -0.01556,-0.00173 -0.00869,-0.00352 z m 5.0356187,-0.178676 c 0.007,-0.00777 0.01437,-0.014121 0.01631,-0.014121 0.0019,0 -0.0022,0.00635 -0.0092,0.014121 -0.007,0.00777 -0.01437,0.014121 -0.01631,0.014121 -0.0019,0 0.0022,-0.00635 0.0092,-0.014121 z m 0.09178,-0.084724 c 0.01517,-0.015533 0.02917,-0.028241 0.03111,-0.028241 0.0019,0 -0.0089,0.012709 -0.02405,0.028241 -0.01517,0.015533 -0.02917,0.028241 -0.03111,0.028241 -0.0019,0 0.0089,-0.012709 0.02405,-0.028241 z m 0.08472,-0.091784 c 0.007,-0.00777 0.01437,-0.014121 0.01631,-0.014121 0.0019,0 -0.0022,0.00635 -0.0092,0.014121 -0.007,0.00777 -0.01437,0.01412 -0.01631,0.01412 -0.0019,0 0.0022,-0.00635 0.0092,-0.01412 z m 1.169594,-1.059051 c 0,-0.00971 0.0016,-0.01368 0.0036,-0.00883 0.002,0.00485 0.002,0.012797 0,0.017651 -0.002,0.00485 -0.0036,8.84e-4 -0.0036,-0.00883 z m 0.0079,-0.1270861 c 0,-0.017474 0.0014,-0.024623 0.0031,-0.015886 0.0017,0.00874 0.0017,0.023034 0,0.031772 -0.0017,0.00874 -0.0031,0.00159 -0.0031,-0.015886 z M 12.40277,6.6006303 c 0,-0.03689 0.0012,-0.051982 0.0026,-0.033537 0.0015,0.018445 0.0015,0.048628 0,0.067073 -0.0015,0.018445 -0.0026,0.00335 -0.0026,-0.033536 z m 0.698346,-0.084724 c 0,-0.017474 0.0014,-0.024623 0.0031,-0.015886 0.0017,0.00874 0.0017,0.023034 0,0.031771 -0.0017,0.00874 -0.0031,0.00159 -0.0031,-0.015886 z m -8.6472507,0 c 0.00703,-0.00777 0.014367,-0.014121 0.016309,-0.014121 0.00194,0 -0.00222,0.00635 -0.00925,0.014121 -0.00703,0.00777 -0.014367,0.01412 -0.016309,0.01412 -0.00194,0 0.00222,-0.00635 0.00925,-0.01412 z M 4.5738654,6.3888197 c 0.038686,-0.038832 0.071927,-0.070604 0.073868,-0.070604 0.00194,0 -0.028122,0.031772 -0.066808,0.070604 -0.038686,0.038832 -0.071927,0.070603 -0.073868,0.070603 -0.00194,0 0.028122,-0.031772 0.066808,-0.070603 z m 3.1381437,-0.047657 -0.059856,-0.061778 0.061778,0.059857 c 0.033977,0.032921 0.061777,0.060721 0.061777,0.061778 0,0.00514 -0.0081,-0.00248 -0.063699,-0.059857 z M 4.7009507,6.2687938 c 0.00703,-0.00777 0.014367,-0.014121 0.016309,-0.014121 0.00194,0 -0.00222,0.00635 -0.00925,0.014121 -0.00703,0.00777 -0.014368,0.014121 -0.016309,0.014121 -0.00194,0 0.00222,-0.00635 0.00925,-0.014121 z m 2.8940491,-0.037067 -0.01345,-0.015886 0.015886,0.01345 c 0.014928,0.012639 0.0191,0.018322 0.01345,0.018322 -0.00134,0 -0.00849,-0.00715 -0.015886,-0.015886 z M 6.0690164,5.6849532 c 0.00687,-0.00179 0.016401,-0.00167 0.021181,2.501e-4 0.00478,0.00193 -8.422e-4,0.0034 -0.01249,0.00326 -0.01165,-1.251e-4 -0.015561,-0.00173 -0.00869,-0.00351 z m 0.2118088,0 c 0.00687,-0.00179 0.016401,-0.00167 0.021181,2.501e-4 0.00478,0.00193 -8.423e-4,0.0034 -0.01249,0.00326 -0.011649,-1.251e-4 -0.01556,-0.00173 -0.00869,-0.00351 z m 5.6491938,-0.3498892 -0.01345,-0.015886 0.01589,0.01345 c 0.01493,0.012639 0.0191,0.018322 0.01345,0.018322 -0.0013,0 -0.0085,-0.00715 -0.01589,-0.015886 z m -0.09133,-0.098845 -0.04214,-0.044127 0.04413,0.042141 c 0.02427,0.023177 0.04413,0.043035 0.04413,0.044127 0,0.00522 -0.007,-0.00115 -0.04611,-0.042141 z M 6.9811636,5.137374 6.9461276,5.100307 6.9831946,5.135344 c 0.034443,0.032556 0.040304,0.039097 0.035036,0.039097 -0.00112,0 -0.017797,-0.01668 -0.037067,-0.037067 z m 4.7582314,0.00706 -0.01345,-0.015886 0.01589,0.01345 c 0.01493,0.012639 0.0191,0.018322 0.01345,0.018322 -0.0013,0 -0.0085,-0.00715 -0.01589,-0.015886 z M 5.9876889,5.077981 c 0.00485,-0.00196 0.012796,-0.00196 0.017651,0 0.00485,0.00196 8.84e-4,0.00356 -0.00883,0.00356 -0.00971,0 -0.013679,-0.0016 -0.00883,-0.00356 z m 0.3741953,0 c 0.00485,-0.00196 0.012797,-0.00196 0.017651,0 0.00485,0.00196 8.839e-4,0.00356 -0.00883,0.00356 -0.00971,0 -0.013679,-0.0016 -0.00883,-0.00356 z M 6.1569784,5.070501 c 0.012534,-0.00156 0.034774,-0.00158 0.049422,-4.17e-5 0.014648,0.00153 0.00439,0.00281 -0.022788,0.00284 -0.027182,2.8e-5 -0.039168,-0.00122 -0.026634,-0.00278 z M 6.8855768,5.034999 6.8684598,5.015583 6.8878758,5.0327 c 0.018147,0.015998 0.022654,0.021716 0.017116,0.021716 -0.00126,0 -0.010002,-0.00874 -0.019416,-0.019416 z m 5.5669042,-0.1659178 -0.01345,-0.015886 0.01589,0.01345 c 0.01493,0.012639 0.0191,0.018322 0.01345,0.018322 -0.0013,0 -0.0085,-0.00715 -0.01588,-0.015886 z m -0.119487,-0.1270862 -0.07047,-0.072369 0.07237,0.070471 c 0.06722,0.065453 0.07558,0.074266 0.07047,0.074266 -0.001,0 -0.03361,-0.032566 -0.07237,-0.072369 z m -0.127624,-0.1200259 -0.01345,-0.015886 0.01588,0.01345 c 0.01493,0.012639 0.0191,0.018322 0.01345,0.018322 -0.0013,0 -0.0085,-0.00715 -0.01589,-0.015886 z M 4.1833955,4.0906807 c 1.251e-4,-0.011649 0.00173,-0.015561 0.00351,-0.00869 0.00179,0.00687 0.00167,0.016401 -2.502e-4,0.021181 -0.00193,0.00478 -0.0034,-8.401e-4 -0.00326,-0.01249 z M 4.1831453,3.7482542 c 0,-0.00971 0.0016,-0.013679 0.00356,-0.00883 0.00196,0.00485 0.00196,0.012797 0,0.017651 -0.00196,0.00485 -0.00356,8.827e-4 -0.00356,-0.00883 z M 0.82295805,2.5479965 c 0,-0.013591 0.001453,-0.019151 0.003229,-0.012356 0.001776,0.0068 0.001776,0.017916 0,0.024711 -0.001776,0.0068 -0.003229,0.00124 -0.003229,-0.012356 z M 0.12372751,2.5021043 c 1.4593e-4,-0.011649 0.001726,-0.015561 0.003516,-0.00869 0.00179,0.00687 0.001672,0.016401 -2.6268e-4,0.021181 -0.001934,0.00478 -0.003399,-8.405e-4 -0.003255,-0.01249 z M 5.6304939,2.3644277 c 0,-0.00971 0.0016,-0.013679 0.00356,-0.00883 0.00196,0.00485 0.00196,0.012797 0,0.017651 -0.00196,0.00485 -0.00356,8.827e-4 -0.00356,-0.00883 z m -0.00654,-0.1129655 c 0,-0.013591 0.00146,-0.019151 0.00323,-0.012356 0.00178,0.0068 0.00178,0.017916 0,0.024711 -0.00178,0.0068 -0.00323,0.00124 -0.00323,-0.012356 z m 0.606662,-0.3177153 c 0,-0.00971 0.0016,-0.013679 0.00356,-0.00883 0.00196,0.00485 0.00196,0.012797 0,0.017651 -0.00196,0.00485 -0.00356,8.827e-4 -0.00356,-0.00883 z m -0.6069234,-0.01059 c 1.25e-4,-0.01165 0.00173,-0.015561 0.00351,-0.00869 0.00179,0.00687 0.00167,0.016401 -2.502e-4,0.021181 -0.00193,0.00478 -0.0034,-8.406e-4 -0.00326,-0.01249 z m 0.0068,-0.1164955 c 0,-0.00971 0.0016,-0.01368 0.00356,-0.00883 0.00196,0.00485 0.00196,0.012797 0,0.017651 -0.00196,0.00485 -0.00356,8.826e-4 -0.00356,-0.00883 z M 5.2798945,1.3759801 c 0.00703,-0.00777 0.014368,-0.014121 0.016309,-0.014121 0.00194,0 -0.00222,0.00635 -0.00925,0.014121 -0.00703,0.00777 -0.014368,0.014121 -0.016309,0.014121 -0.00194,0 0.00222,-0.00635 0.00925,-0.014121 z M 5.336377,1.312437 c 0.00703,-0.00777 0.014368,-0.014121 0.016309,-0.014121 0.00194,0 -0.00222,0.00635 -0.00925,0.014121 -0.00703,0.00777 -0.014367,0.014121 -0.016309,0.014121 -0.00194,0 0.00222,-0.00635 0.00925,-0.014121 z M 1.3861434,1.2665449 c 0.025016,-0.025241 0.047073,-0.045892 0.049014,-0.045892 0.00194,0 -0.016938,0.020652 -0.041954,0.045892 -0.025016,0.025241 -0.047072,0.045892 -0.049014,0.045892 -0.00194,0 0.016938,-0.020651 0.041954,-0.045892 z m 4.0349571,-0.045892 c 0.015167,-0.015533 0.029165,-0.028241 0.031107,-0.028241 0.00194,0 -0.00888,0.012709 -0.024047,0.028241 -0.015167,0.015533 -0.029165,0.028241 -0.031107,0.028241 -0.00194,0 0.00888,-0.012709 0.024047,-0.028241 z M 5.675271,0.96648041 c 0.015167,-0.0155327 0.029165,-0.0282413 0.031107,-0.0282413 0.00194,0 -0.00888,0.0127086 -0.024046,0.0282413 -0.015167,0.0155328 -0.029165,0.0282414 -0.031107,0.0282414 -0.00194,0 0.00888,-0.0127086 0.024047,-0.0282414 z M 4.884518,0.91705805 c 0.00703,-0.007766 0.014367,-0.0141207 0.016309,-0.0141207 0.00194,0 -0.00222,0.006354 -0.00925,0.0141207 -0.00703,0.007766 -0.014368,0.0141207 -0.016309,0.0141207 -0.00194,0 0.00222,-0.006354 0.00925,-0.0141207 z M 0.76836788,0.90293736 c 0.007028,-0.007766 0.0143675,-0.0141207 0.0163091,-0.0141207 0.001942,0 -0.00222,0.006354 -0.009249,0.0141207 -0.007028,0.007766 -0.0143675,0.0141207 -0.0163091,0.0141207 -0.001942,0 0.00222,-0.006354 0.009249,-0.0141207 z M 5.7599945,0.8888167 c 0.00703,-0.007766 0.014368,-0.0141207 0.016309,-0.0141207 0.00194,0 -0.00222,0.006354 -0.00925,0.0141207 -0.00703,0.007766 -0.014368,0.0141207 -0.016309,0.0141207 -0.00194,0 0.00222,-0.006354 0.00925,-0.0141207 z M 4.9445307,0.84998481 c 0.00912,-0.009708 0.018171,-0.0176508 0.020112,-0.0176508 0.00194,0 -0.00393,0.007943 -0.013052,0.0176508 -0.00912,0.009708 -0.018171,0.0176509 -0.020112,0.0176509 -0.00194,0 0.00393,-0.007943 0.013052,-0.0176509 z M 0.89179681,0.77408617 c 0.0687392,-0.0704963 0.0777894,-0.0791065 0.0777894,-0.0740074 0,0.00104 -0.0341542,0.0351945 -0.0758981,0.0758987 l -0.0758981,0.0740074 z M 2.7260205,0.70006912 c 0.016606,-0.001491 0.042023,-0.001471 0.056482,4.67e-5 0.014459,0.001517 8.723e-4,0.002737 -0.030193,0.002712 -0.031065,-2.541e-5 -0.042896,-0.001267 -0.026289,-0.002759 z M 2.9447029,0.00865865 c 0.00485,-0.00195862 0.012797,-0.00195862 0.017651,0 0.00485,0.00195862 8.827e-4,0.00356112 -0.00883,0.00356112 -0.00971,0 -0.013679,-0.0016025 -0.00883,-0.00356112 z M 2.669478,0.00115739 C 2.682168,-4.1397e-4 2.701231,-3.81573e-4 2.71184,0.00122952 2.722449,0.00284053 2.7120652,0.00412615 2.688768,0.00408654 2.665469,0.00404691 2.656789,0.00272883 2.669479,0.00115747 Z m 0.1200249,0 c 0.01269,-0.00157136 0.031753,-0.001538963 0.042362,7.213e-5 0.010609,0.00161101 2.251e-4,0.00289663 -0.023072,0.00285702 -0.023299,-3.963e-5 -0.031979,-0.00135771 -0.019289,-0.00292907 z"
       id="path60" />
    <path
       style="fill:#fac36e;stroke-width:0.0070603"
       d="m 2.7012572,11.474433 c 0.00687,-0.0018 0.016401,-0.0017 0.021181,2.5e-4 0.00478,0.0019 -8.406e-4,0.0034 -0.01249,0.0033 -0.011649,-1.25e-4 -0.01556,-0.0017 -0.00869,-0.0035 z m 0.1022399,2.09e-4 c 0.00485,-0.002 0.012797,-0.002 0.017651,0 0.00485,0.002 8.827e-4,0.0036 -0.00883,0.0036 -0.00971,0 -0.013679,-0.0016 -0.00883,-0.0036 z m -0.6764031,-0.261854 -0.024331,-0.02648 0.026476,0.02433 c 0.014562,0.01338 0.026476,0.0253 0.026476,0.02648 0,0.0054 -0.00597,2.92e-4 -0.028621,-0.02433 z M 1.8768092,6.614752 c 0,-2.2153579 8.051e-4,-3.1216408 0.00179,-2.0139618 9.845e-4,1.1076789 9.845e-4,2.9202446 0,4.027924 -9.839e-4,1.1076789 -0.00179,0.201396 -0.00179,-2.0139622 z m 5.058724,2.7711836 c 0.013173,-0.013591 0.025539,-0.024711 0.027481,-0.024711 0.00194,0 -0.00725,0.01112 -0.020421,0.024711 -0.013173,0.013591 -0.025539,0.024711 -0.027481,0.024711 -0.00194,0 0.00725,-0.01112 0.020421,-0.024711 z M 6.68674,8.847886 c 0.00878,-0.00169 0.021491,-0.00163 0.028241,1.251e-4 0.00675,0.00177 -4.337e-4,0.00315 -0.015968,0.00307 -0.015532,-8.33e-5 -0.021055,-0.00153 -0.012273,-0.00321 z M 5.1722252,8.593841 c 0.0068,-0.00178 0.017915,-0.00178 0.024711,0 0.0068,0.00178 0.00123,0.00323 -0.012355,0.00323 -0.013591,0 -0.019151,-0.00145 -0.012356,-0.00323 z m 0.1270852,0 c 0.0068,-0.00178 0.017915,-0.00178 0.024711,0 0.0068,0.00178 0.00123,0.00323 -0.012355,0.00323 -0.013591,0 -0.019151,-0.00145 -0.012356,-0.00323 z M 3.1808341,8.5316342 c 1.459e-4,-0.011649 0.00173,-0.01556 0.00352,-0.00869 0.00179,0.00687 0.00167,0.016401 -2.627e-4,0.021181 -0.00193,0.00478 -0.0034,-8.422e-4 -0.00325,-0.01249 z m -2.627e-4,-0.377728 c 0,-0.00971 0.0016,-0.013679 0.00356,-0.00883 0.00196,0.00485 0.00196,0.012797 0,0.017651 -0.00196,0.00485 -0.00356,8.84e-4 -0.00356,-0.00883 z M 4.0725845,6.028744 c 0.00703,-0.00777 0.014368,-0.014121 0.016309,-0.014121 0.00194,0 -0.00222,0.00635 -0.00925,0.014121 -0.00703,0.00777 -0.014368,0.01412 -0.016309,0.01412 -0.00194,0 0.00222,-0.00635 0.00925,-0.01412 z M 4.182728,5.9178647 c 0.00514,-0.00856 0.010867,-0.014045 0.012724,-0.012187 0.00186,0.00186 -0.00235,0.00886 -0.00935,0.015565 -0.012158,0.011645 -0.012308,0.011494 -0.00338,-0.00338 z M 7.6410278,4.929096 7.6239118,4.90968 7.6433278,4.926797 c 0.010679,0.00941 0.019416,0.018152 0.019416,0.019416 0,0.00554 -0.00572,0.00103 -0.021716,-0.017117 z m -0.2824116,-0.2894737 -0.017117,-0.019416 0.019416,0.017116 c 0.018147,0.015998 0.022654,0.021716 0.017116,0.021716 -0.00126,0 -0.010001,-0.00874 -0.019416,-0.019416 z M 3.5759488,4.200116 c 0,-0.00971 0.0016,-0.013679 0.00356,-0.00883 0.00196,0.00485 0.00196,0.012797 0,0.017651 -0.00196,0.00485 -0.00356,8.827e-4 -0.00356,-0.00883 z m -0.00586,-0.2153404 c 2.83e-5,-0.027182 0.00131,-0.037437 0.00284,-0.022789 0.00153,0.014648 0.0015,0.036889 -4.17e-5,0.049422 -0.00156,0.012534 -0.00281,5.488e-4 -0.00278,-0.026634 z m 0.00586,-0.2224007 c 0,-0.00971 0.0016,-0.013679 0.00356,-0.00883 0.00196,0.00485 0.00196,0.012797 0,0.017651 -0.00196,0.00485 -0.00356,8.826e-4 -0.00356,-0.00883 z"
       id="path58" />
    <path
       style="fill:#ffffff;stroke-width:0.0070603;fill-opacity:1"
       d="M 2.677383,11.472554 C 2.4718096,11.451521 2.2942181,11.368648 2.1446375,11.223949 2.0079045,11.091677 1.923235,10.932562 1.8908931,10.747098 1.881643,10.694053 1.8803639,10.19206 1.8803639,6.614752 c 0,-4.4749041 -0.00358,-4.1167848 0.042566,-4.2580216 0.1147517,-0.351211 0.4611189,-0.5994352 0.8364398,-0.5994352 0.1120539,0 0.2299132,0.02322 0.3340542,0.065814 0.039045,0.01597 0.392625,0.1957238 0.761464,0.3871161 l 0.1211976,0.06289 -0.031991,0.06846 C 3.8313247,2.5828985 3.7190319,2.9155614 3.6599218,3.1834271 3.5402614,3.7256858 3.542794,4.2874664 3.6671792,4.7931847 3.7578429,5.1618012 3.926203,5.5313991 4.1425369,5.836731 c 0.025598,0.036129 0.046542,0.067537 0.046542,0.069794 0,0.00226 -0.032579,0.037828 -0.072397,0.079048 -0.3615858,0.3743 -0.6499979,0.8768797 -0.8026493,1.398675 -0.057706,0.1972516 -0.09715,0.3996591 -0.1217809,0.6249214 -0.014686,0.134311 -0.012451,0.5646584 0.00367,0.7060338 0.026598,0.2333039 0.075163,0.4809947 0.1357397,0.6922937 0.053774,0.1875721 0.1502004,0.4605637 0.161433,0.457033 0.00264,-8.297e-4 0.03594,-0.045311 0.073999,-0.098845 C 3.8482077,9.3702596 4.1444586,9.0559979 4.4099433,8.8715883 4.704792,8.6667825 5.0183082,8.5752208 5.3448356,8.598555 c 0.159989,0.011434 0.3021118,0.040812 0.4963521,0.1026028 0.353375,0.1124137 0.673662,0.1599305 0.9684152,0.1436703 0.1545328,-0.00852 0.2695963,-0.029703 0.4020668,-0.074003 0.033192,-0.011099 -0.040603,0.2471742 -0.1102435,0.3858394 -0.06575,0.1309179 -0.1794121,0.2604077 -0.2859181,0.3257328 -0.091833,0.056326 -3.6860649,1.9142637 -3.7491957,1.9380417 -0.1143434,0.04307 -0.2715128,0.06413 -0.3889295,0.05212 z M 9.1462226,8.1700142 C 9.0896676,7.4705544 8.8839512,6.7859767 8.5398983,6.1522998 8.3720094,5.8430824 8.1440665,5.508956 7.9093995,5.2280953 7.7838511,5.0778326 7.6903863,4.975861 7.504299,4.7861241 7.1863802,4.4619704 6.98981,4.2217247 6.7964486,3.9209987 6.7410611,3.834857 6.6292715,3.6423011 6.6330469,3.6395419 c 0.00608,-0.00444 4.2856071,2.2006973 4.3364611,2.2344769 0.07184,0.047719 0.180499,0.1556642 0.226818,0.2253285 0.109717,0.165011 0.157492,0.3345475 0.14999,0.5322561 -0.004,0.1055532 -0.01503,0.1692747 -0.04452,0.2573556 -0.05906,0.1763875 -0.183076,0.3376155 -0.338415,0.4399627 -0.03894,0.025657 -0.457826,0.2469841 -0.934914,0.4939823 -0.4753994,0.2461234 -0.8664864,0.4483921 -0.8690827,0.4494854 -0.0026,0.00109 -0.00852,-0.044976 -0.01316,-0.1023752 z"
       id="path56" />
    <path
       style="fill:#6ccca1;stroke-width:0.0070603"
       d="m 2.623594,13.225398 c 0.00687,-0.0018 0.016401,-0.0017 0.021181,2.5e-4 0.00478,0.0019 -8.406e-4,0.0034 -0.01249,0.0033 -0.011649,-1.25e-4 -0.01556,-0.0017 -0.00869,-0.0035 z m 0.2400499,0 c 0.00687,-0.0018 0.016401,-0.0017 0.021181,2.5e-4 0.00478,0.0019 -8.406e-4,0.0034 -0.01249,0.0033 -0.011649,-1.25e-4 -0.01556,-0.0017 -0.00869,-0.0035 z m -1.90531895,-0.702907 -0.0134498,-0.01589 0.0158856,0.01345 c 0.008737,0.0074 0.0158857,0.01455 0.0158857,0.01588 0,0.0057 -0.005682,0.0015 -0.0183215,-0.01345 z M 0.82243482,10.72387 c 0,-0.0097 0.001602,-0.01368 0.003561,-0.0088 0.001958,0.0049 0.001958,0.0128 0,0.01765 -0.001959,0.0049 -0.003561,8.84e-4 -0.003561,-0.0088 z M 0.12413161,10.68504 c 7.922e-5,-0.01553 0.001524,-0.02106 0.003213,-0.01227 0.001689,0.0088 0.001625,0.02149 -1.4176e-4,0.02824 -0.001767,0.0068 -0.003149,-4.37e-4 -0.00307,-0.01597 z M 3.6623009,8.7434444 c 1.38e-5,-0.050481 0.00114,-0.070206 0.0025,-0.043833 0.00136,0.026373 0.00135,0.067676 -2.12e-5,0.091785 -0.00138,0.024108 -0.00249,0.00253 -0.00248,-0.047951 z m 4.8840935,0.00353 c 0,-0.00971 0.0016,-0.013679 0.00356,-0.00883 0.00196,0.00485 0.00196,0.012797 0,0.017651 -0.00196,0.00485 -0.00356,8.84e-4 -0.00356,-0.00883 z m 0.00826,-0.1659179 c 0,-0.027183 0.00131,-0.037437 0.00284,-0.022789 0.00153,0.014649 0.0015,0.036889 -8.34e-5,0.049422 -0.00156,0.012533 -0.00281,5.504e-4 -0.00278,-0.026634 z M 7.8558773,8.4822132 c 0,-0.034949 0.00117,-0.050136 0.00265,-0.03375 0.00148,0.016386 0.0015,0.044981 8.34e-5,0.063543 -0.00146,0.018563 -0.00267,0.00516 -0.00269,-0.029793 z m -4.1881448,0.017651 c 0,-0.00971 0.0016,-0.013679 0.00356,-0.00883 0.00196,0.00485 0.00196,0.012797 0,0.017651 -0.00196,0.00485 -0.00356,8.839e-4 -0.00356,-0.00883 z m 4.8868674,-0.056482 c 0,-0.025241 0.00128,-0.035567 0.00285,-0.022946 0.00157,0.012621 0.00157,0.033272 0,0.045892 -0.00157,0.01262 -0.00285,0.00229 -0.00285,-0.022946 z M 6.6054643,8.226382 c 0.018445,-0.00146 0.048628,-0.00146 0.067073,0 0.018445,0.00146 0.00335,0.00264 -0.033536,0.00264 -0.03689,0 -0.051982,-0.00119 -0.033537,-0.00264 z M 11.796544,8.0056403 c 0.007,-0.00777 0.01437,-0.014121 0.01631,-0.014121 0.0019,0 -0.0022,0.00635 -0.0092,0.014121 -0.007,0.00777 -0.01437,0.014121 -0.01631,0.014121 -0.0019,0 0.0022,-0.00635 0.0092,-0.014121 z M 5.1901526,7.9651041 c 0.024422,-0.00138 0.062547,-0.00137 0.084723,0 0.022176,0.0014 0.00219,0.00253 -0.044404,0.00251 -0.046598,0 -0.064742,-0.00115 -0.04032,-0.00254 z m 6.6911154,-0.044188 c 0.007,-0.00777 0.01437,-0.014121 0.01631,-0.014121 0.0019,0 -0.0022,0.00635 -0.0092,0.014121 -0.007,0.00777 -0.01437,0.014121 -0.01631,0.014121 -0.0019,0 0.0022,-0.00635 0.0092,-0.014121 z m 0.520569,-1.2355593 c 0,-0.013591 0.0015,-0.019151 0.0032,-0.012356 0.0018,0.0068 0.0018,0.017916 0,0.024711 -0.0018,0.0068 -0.0032,0.00123 -0.0032,-0.012355 z m 0.699798,-0.084724 c 0,-0.033007 0.0012,-0.04651 0.0027,-0.030007 0.0015,0.016504 0.0015,0.043509 0,0.060013 -0.0015,0.016504 -0.0027,0.003 -0.0027,-0.030006 z m -0.699798,-0.084724 c 0,-0.013591 0.0015,-0.019151 0.0032,-0.012356 0.0018,0.0068 0.0018,0.017916 0,0.024711 -0.0018,0.0068 -0.0032,0.00123 -0.0032,-0.012355 z m 0.691386,-0.1059051 c 0,-0.00971 0.0016,-0.01368 0.0036,-0.00883 0.002,0.00485 0.002,0.012797 0,0.017651 -0.002,0.00485 -0.0036,8.839e-4 -0.0036,-0.00883 z M 6.1077136,5.6848648 c 0.00874,-0.00168 0.023034,-0.00168 0.031771,0 0.00874,0.00168 0.00159,0.00306 -0.015886,0.00306 -0.017474,0 -0.024623,-0.00138 -0.015886,-0.00306 z m 0.1200251,0 c 0.00874,-0.00168 0.023034,-0.00168 0.031771,0 0.00874,0.00168 0.00159,0.00306 -0.015886,0.00306 -0.017474,0 -0.024623,-0.00138 -0.015886,-0.00306 z M 6.0935933,5.0706152 c 0.00874,-0.00168 0.023034,-0.00168 0.031771,0 0.00874,0.00168 0.00159,0.00306 -0.015886,0.00306 -0.017474,0 -0.024623,-0.00138 -0.015886,-0.00306 z m 0.1482662,0 c 0.00874,-0.00168 0.023034,-0.00168 0.031771,0 0.00874,0.00168 0.00159,0.00306 -0.015886,0.00306 -0.017474,0 -0.024623,-0.00138 -0.015886,-0.00306 z M 4.1833955,4.055379 c 1.251e-4,-0.011649 0.00173,-0.015561 0.00351,-0.00869 0.00179,0.00687 0.00167,0.016401 -2.502e-4,0.021181 -0.00193,0.00478 -0.0034,-8.406e-4 -0.00326,-0.01249 z m 0,-0.2753532 c 1.251e-4,-0.01165 0.00173,-0.015561 0.00351,-0.00869 0.00179,0.00687 0.00167,0.016401 -2.502e-4,0.021181 -0.00193,0.00478 -0.0034,-8.405e-4 -0.00326,-0.01249 z M 0.12427408,2.5479965 c 0,-0.017474 0.001377,-0.024623 0.00306,-0.015886 0.001683,0.00874 0.001683,0.023034 0,0.031772 -0.001683,0.00874 -0.00306,0.00159 -0.00306,-0.015886 z m 0.69816074,-0.035302 c 0,-0.00971 0.001602,-0.013679 0.003561,-0.00883 0.001958,0.00485 0.001958,0.012797 0,0.017651 -0.001959,0.00485 -0.003561,8.827e-4 -0.003561,-0.00883 z M 5.6234333,2.2867639 c 0,-0.00971 0.0016,-0.013679 0.00356,-0.00883 0.00196,0.00485 0.00196,0.012797 0,0.017651 -0.00196,0.00485 -0.00356,8.827e-4 -0.00356,-0.00883 z M 6.2308804,1.9655185 c 1.251e-4,-0.01165 0.00173,-0.015561 0.00351,-0.00869 0.00179,0.00687 0.00167,0.016401 -2.502e-4,0.021181 -0.00193,0.00478 -0.0034,-8.405e-4 -0.00326,-0.01249 z M 5.6236952,1.8878548 c 1.25e-4,-0.01165 0.00173,-0.015561 0.00351,-0.00869 0.00179,0.00687 0.00167,0.016401 -2.502e-4,0.021181 -0.00193,0.00478 -0.0034,-8.406e-4 -0.00326,-0.01249 z M 5.4528718,1.1902021 c 0,-0.00121 0.010326,-0.011541 0.022946,-0.022946 l 0.022946,-0.020737 -0.020736,0.022946 c -0.01933,0.021389 -0.025155,0.026191 -0.025155,0.020737 z M 5.6081981,1.0348746 c 0,-0.00121 0.010326,-0.011541 0.022946,-0.022946 l 0.022946,-0.0207369 -0.020737,0.0229461 c -0.01933,0.021389 -0.025155,0.026191 -0.025155,0.020737 z M 2.6658214,0.70038098 c 0.0068,-0.001776 0.017915,-0.001776 0.024711,0 0.0068,0.001776 0.00124,0.003229 -0.012355,0.003229 -0.013591,0 -0.019151,-0.001453 -0.012355,-0.003229 z m 0.1482661,0 c 0.0068,-0.001776 0.017915,-0.001776 0.024711,0 0.0068,0.001776 0.00124,0.003229 -0.012355,0.003229 -0.013591,0 -0.019151,-0.001453 -0.012355,-0.003229 z M 2.7364243,0.00140736 c 0.0068,-0.00177587 0.017915,-0.00177587 0.024711,0 0.0068,0.00177587 0.00124,0.00322885 -0.012355,0.00322885 -0.013591,0 -0.019151,-0.00145298 -0.012355,-0.00322885 z"
       id="path54" />
    <path
       style="fill:#3fbe84;stroke-width:0.0070603"
       d="m 2.6659185,13.225224 c 0.010732,-0.0016 0.026618,-0.0016 0.035301,8.3e-5 0.00868,0.0017 -9.59e-5,0.003 -0.019513,0.003 -0.019416,-8.3e-5 -0.026521,-0.0014 -0.015788,-0.003 z m 0.1340484,0 c 0.010679,-0.0016 0.028153,-0.0016 0.038832,0 0.010679,0.0016 0.00194,0.0029 -0.019416,0.0029 -0.021357,0 -0.030094,-0.0013 -0.019416,-0.0029 z m -0.073946,-0.692035 c 0.016606,-0.0015 0.042023,-0.0015 0.056482,8.3e-5 0.014459,0.0015 8.723e-4,0.0027 -0.030193,0.0027 -0.031065,0 -0.042896,-0.0013 -0.026289,-0.0028 z m -1.83409752,-0.07601 c -0.0289293,-0.02912 -0.0510102,-0.05295 -0.0490686,-0.05295 0.001942,0 0.0271996,0.02383 0.0561289,0.05295 0.0289293,0.02912 0.0510102,0.05295 0.0490686,0.05295 -0.001942,0 -0.0271996,-0.02383 -0.0561289,-0.05295 z m 0.49050092,-0.492459 -0.049233,-0.05119 0.051187,0.04923 c 0.028153,0.02708 0.051187,0.05011 0.051187,0.05119 0,0.0052 -0.00741,-0.0017 -0.053141,-0.04923 z m 6.1144025,-1.057285 c 0.00703,-0.0078 0.014368,-0.01412 0.016309,-0.01412 0.00194,0 -0.00222,0.0064 -0.00925,0.01412 -0.00703,0.0078 -0.014368,0.01412 -0.016309,0.01412 -0.00194,0 0.00222,-0.0064 0.00925,-0.01412 z m 0.1553263,-0.155328 c 0.00703,-0.0078 0.014368,-0.01412 0.016309,-0.01412 0.00194,0 -0.00222,0.0064 -0.00925,0.01412 -0.00703,0.0078 -0.014368,0.01412 -0.016309,0.01412 -0.00194,0 0.00222,-0.0064 0.00925,-0.01412 z M 0.12585686,6.6182823 c 0,-2.225066 8.0512e-4,-3.1342654 0.00179,-2.0204429 9.8399e-4,1.1138223 9.8399e-4,2.9343313 0,4.0455743 -9.8399e-4,1.1112438 -0.00179,0.1999347 -0.00179,-2.0251314 z M 7.0484977,10.346142 c 0.013173,-0.01359 0.025539,-0.02471 0.027481,-0.02471 0.00194,0 -0.00725,0.01112 -0.020421,0.02471 -0.013173,0.01359 -0.025539,0.02471 -0.027481,0.02471 -0.00194,0 0.00725,-0.01112 0.020421,-0.02471 z M 8.5463944,8.7187335 c 0,-0.00971 0.0016,-0.01368 0.00356,-0.00883 0.00196,0.00485 0.00196,0.012797 0,0.017651 -0.00196,0.00485 -0.00356,8.84e-4 -0.00356,-0.00883 z M 7.8551514,8.5669361 c 8.34e-5,-0.015533 0.00153,-0.021056 0.00321,-0.012273 0.00169,0.00878 0.00163,0.021491 -1.251e-4,0.028241 -0.00177,0.00675 -0.00315,-4.378e-4 -0.00307,-0.015968 z M 3.6679943,8.5316342 c 1.251e-4,-0.011649 0.00173,-0.01556 0.00351,-0.00869 0.00179,0.00687 0.00167,0.016401 -2.502e-4,0.021181 -0.00193,0.00478 -0.0034,-8.422e-4 -0.00326,-0.01249 z m 8.5874687,-0.00353 c 0.007,-0.00777 0.01437,-0.014121 0.01631,-0.014121 0.0019,0 -0.0022,0.00635 -0.0092,0.014121 -0.007,0.00777 -0.01437,0.01412 -0.01631,0.01412 -0.0019,0 0.0022,-0.00635 0.0092,-0.01412 z M 8.5541204,8.5104515 c 8.34e-5,-0.015533 0.00153,-0.021056 0.00321,-0.012273 0.00169,0.00878 0.00163,0.021491 -1.251e-4,0.028241 -0.00177,0.00675 -0.00315,-4.378e-4 -0.00307,-0.015968 z m -4.5697893,-0.0353 c 0.021092,-0.021358 0.039938,-0.038832 0.041879,-0.038832 0.00194,0 -0.013727,0.017474 -0.034819,0.038832 -0.021092,0.021357 -0.039938,0.038832 -0.041879,0.038832 -0.00194,0 0.013727,-0.017474 0.034819,-0.038832 z m 3.8708203,-0.077664 c 8.34e-5,-0.015533 0.00153,-0.021056 0.00321,-0.012273 0.00169,0.00878 0.00163,0.021491 -1.251e-4,0.028241 -0.00177,0.00675 -0.00315,-4.378e-4 -0.00307,-0.015968 z m 4.5485776,-0.017651 c 0.007,-0.00777 0.01437,-0.014121 0.01631,-0.014121 0.0019,0 -0.0022,0.00635 -0.0092,0.014121 -0.007,0.00777 -0.01437,0.01412 -0.01631,0.01412 -0.0019,0 0.0022,-0.00635 0.0092,-0.01412 z M 8.5463944,8.3021733 c 0,-0.00971 0.0016,-0.013679 0.00356,-0.00883 0.00196,0.00485 0.00196,0.012797 0,0.017651 -0.00196,0.00485 -0.00356,8.839e-4 -0.00356,-0.00883 z M 5.1229375,7.9654447 c 0.00687,-0.00179 0.016401,-0.00167 0.021181,2.502e-4 0.00478,0.00193 -8.422e-4,0.0034 -0.01249,0.00326 -0.011649,-1.251e-4 -0.015561,-0.00173 -0.00869,-0.00351 z m 0.1940235,2.085e-4 c 0.00485,-0.00196 0.012797,-0.00196 0.017651,0 0.00485,0.00196 8.84e-4,0.00356 -0.00883,0.00356 -0.00971,0 -0.01368,-0.0016 -0.00883,-0.00356 z M 7.6733336,7.800879 c 0.019124,-0.019416 0.036359,-0.035301 0.038301,-0.035301 0.00194,0 -0.012117,0.015886 -0.031241,0.035301 -0.019123,0.019416 -0.036359,0.035302 -0.038301,0.035302 -0.00194,0 0.012117,-0.015886 0.031241,-0.035302 z M 13.093223,6.7630091 c 0,-0.00971 0.0016,-0.013679 0.0036,-0.00883 0.002,0.00485 0.002,0.012797 0,0.017651 -0.002,0.00485 -0.0036,8.839e-4 -0.0036,-0.00883 z m -0.691909,-0.042362 c 0,-0.00971 0.0016,-0.013679 0.0036,-0.00883 0.002,0.00485 0.002,0.012797 0,0.017651 -0.002,0.00485 -0.0036,8.84e-4 -0.0036,-0.00883 z m 0,-0.2400515 c 0,-0.00971 0.0016,-0.013679 0.0036,-0.00883 0.002,0.00485 0.002,0.012797 0,0.017651 -0.002,0.00485 -0.0036,8.839e-4 -0.0036,-0.00883 z m -7.905112,-0.00706 c 0.00703,-0.00777 0.014368,-0.014121 0.016309,-0.014121 0.00194,0 -0.00222,0.00635 -0.00925,0.014121 -0.00703,0.00777 -0.014367,0.01412 -0.016309,0.01412 -0.00194,0 0.00222,-0.00635 0.00925,-0.01412 z m 8.597021,-0.035302 c 0,-0.00971 0.0016,-0.013679 0.0036,-0.00883 0.002,0.00485 0.002,0.012797 0,0.017651 -0.002,0.00485 -0.0036,8.839e-4 -0.0036,-0.00883 z M 6.1678236,5.6847814 c 0.010732,-0.00162 0.026617,-0.00158 0.035301,8.34e-5 0.00868,0.00168 -8.34e-5,0.003 -0.019513,0.00295 -0.019416,-4.17e-5 -0.026521,-0.00143 -0.015789,-0.00305 z m 0.8625791,-0.4909227 -0.020736,-0.022946 0.022946,0.020737 c 0.021389,0.019329 0.026191,0.025155 0.020737,0.025155 -0.00121,0 -0.011541,-0.010326 -0.022947,-0.022946 z M 6.0548961,5.0707053 c 0.00687,-0.00179 0.016401,-0.00167 0.021181,2.501e-4 0.00478,0.00193 -8.422e-4,0.0034 -0.01249,0.00326 -0.011649,-1.251e-4 -0.015561,-0.00173 -0.00869,-0.00351 z m 0.2399156,2.83e-5 c 0.0068,-0.00178 0.017915,-0.00178 0.024711,0 0.0068,0.00178 0.00123,0.00323 -0.012355,0.00323 -0.013591,0 -0.019151,-0.00146 -0.012356,-0.00323 z M 4.1836569,4.0165472 c 0,-0.013591 0.00145,-0.019151 0.00323,-0.012356 0.00178,0.0068 0.00178,0.017916 0,0.024711 -0.00178,0.0068 -0.00323,0.00124 -0.00323,-0.012355 z M 4.183782,3.8223878 c 8.34e-5,-0.015533 0.00153,-0.021056 0.00321,-0.012273 0.00169,0.00878 0.00163,0.021491 -1.251e-4,0.028241 -0.00177,0.00675 -0.00315,-4.357e-4 -0.00307,-0.015968 z M 5.6234158,2.3150053 c 0,-0.00971 0.0016,-0.013679 0.00356,-0.00883 0.00196,0.00485 0.00196,0.012797 0,0.017651 -0.00196,0.00485 -0.00356,8.827e-4 -0.00356,-0.00883 z M 6.2312845,2.20557 c 8.34e-5,-0.015533 0.00153,-0.021056 0.00321,-0.012273 0.00169,0.00878 0.00163,0.021491 -1.251e-4,0.028241 -0.00177,0.00675 -0.00315,-4.357e-4 -0.00307,-0.015968 z M 5.6180018,2.0855443 c 1.41e-5,-0.050482 0.00114,-0.070207 0.0025,-0.043833 0.00136,0.026373 0.00135,0.067676 -2.09e-5,0.091784 -0.00138,0.024108 -0.00249,0.00253 -0.00248,-0.047951 z m 0.6132827,-0.077664 c 8.34e-5,-0.015533 0.00153,-0.021056 0.00321,-0.012273 0.00169,0.00878 0.00163,0.021491 -1.251e-4,0.028241 -0.00177,0.00675 -0.00315,-4.357e-4 -0.00307,-0.015968 z M 5.5481857,1.0935665 c 0.030883,-0.031065 0.05774,-0.056483 0.059681,-0.056483 0.00194,0 -0.021738,0.025417 -0.052621,0.056483 -0.030883,0.031065 -0.05774,0.056483 -0.059681,0.056483 -0.00194,0 0.021738,-0.025417 0.052621,-0.056483 z M 2.63405,0.70057193 c 0.00485,-0.001959 0.012797,-0.001959 0.017651,0 0.00485,0.001959 8.827e-4,0.003561 -0.00883,0.003561 -0.00971,0 -0.013679,-0.001603 -0.00883,-0.003561 z m 0.2188691,0 c 0.00485,-0.001959 0.012797,-0.001959 0.017651,0 0.00485,0.001959 8.826e-4,0.003561 -0.00883,0.003561 -0.00971,0 -0.013679,-0.001603 -0.00883,-0.003561 z M 2.584628,0.00865865 c 0.00485,-0.00195862 0.012797,-0.00195862 0.017651,0 0.00485,0.00195862 8.827e-4,0.00356112 -0.00883,0.00356112 -0.00971,0 -0.013679,-0.0016025 -0.00883,-0.00356112 z m 0.3106529,0 c 0.00485,-0.00195862 0.012797,-0.00195862 0.017651,0 0.00485,0.00195862 8.827e-4,0.00356112 -0.00883,0.00356112 -0.00971,0 -0.013679,-0.0016025 -0.00883,-0.00356112 z"
       id="path52" />
    <path
       style="fill:#ffffff;stroke-width:0.0070603;fill-opacity:1"
       d="M 2.6111041,13.222762 C 2.0598805,13.194741 1.5438252,12.996098 1.1005303,12.641304 1.007174,12.566585 0.82928308,12.392091 0.74727594,12.294795 0.39327464,11.874797 0.18221863,11.364964 0.13641548,10.819184 0.13092897,10.753808 0.12939761,9.5268148 0.13109303,6.5547392 0.13331632,2.6574136 0.13427129,2.3769538 0.1455652,2.3044148 0.18103875,2.0765739 0.2120604,1.9456953 0.27107662,1.7748893 0.40302648,1.3929974 0.60646351,1.0683971 0.89525459,0.77896296 1.3201429,0.35312853 1.8392396,0.10047442 2.4487174,0.02286345 2.5711301,0.0072754 2.9030304,0.00496703 3.0170709,0.01891056 3.3052732,0.05414849 3.5601692,0.12110272 3.7937032,0.2229106 c 0.088216,0.0384576 1.1535731,0.58170355 1.1677351,0.59545082 0.00366,0.003551 -0.013823,0.0278456 -0.041523,0.0577097 -0.069731,0.0751778 -0.237304,0.27649278 -0.325027,0.39047378 -0.041841,0.054365 -0.078844,0.098029 -0.082231,0.097031 C 4.5092721,1.3625786 4.3437389,1.2779842 4.1448071,1.1755887 3.6265478,0.90882701 3.5375575,0.86473042 3.4462622,0.82944531 3.3046834,0.77472598 3.1646386,0.73819345 3.0064805,0.71472248 2.9009682,0.69906429 2.6180041,0.69707943 2.5157902,0.71128056 2.2043488,0.75455078 1.932389,0.85702562 1.6791456,1.0265295 1.2224965,1.332179 0.92325267,1.8053351 0.83746766,2.3573673 c -0.0120108,0.07729 -0.0126175,0.2821723 -0.0126175,4.260915 0,3.9736047 6.1958e-4,4.1835507 0.0125663,4.2573847 0.0188572,0.116544 0.0454116,0.228843 0.075936,0.321137 0.21862624,0.661039 0.75902854,1.148301 1.43719374,1.295866 0.1784801,0.03884 0.4282545,0.05221 0.602982,0.03228 C 3.1388058,12.50382 3.355953,12.44571 3.5183516,12.373807 3.5848246,12.344377 5.4803022,11.366374 6.0212251,11.08241 6.9762746,10.581046 7.5709965,9.9133807 7.779634,9.1083318 7.877267,8.7316045 7.8844122,8.3174255 7.799814,7.9385667 7.783408,7.8651007 7.74935,7.7442996 7.743252,7.7379537 7.741702,7.7363437 7.704692,7.7697727 7.660996,7.8122377 7.4422919,8.0247803 7.1850831,8.1544215 6.8755204,8.2081408 6.8218169,8.2174605 6.7643596,8.2203996 6.6354706,8.2204229 6.3950606,8.2205063 6.2833865,8.2001654 5.9978253,8.1045065 5.4821773,7.9317711 5.0694012,7.91796 4.6479985,8.0593429 4.5503609,8.0921005 4.3517159,8.1901582 4.2632124,8.2492858 4.0334399,8.4027915 3.819074,8.6322103 3.6918803,8.8607343 l -0.025101,0.045098 -8.34e-5,-0.1565307 C 3.6665292,8.4241535 3.6974849,8.1579256 3.7695883,7.8644321 3.9837816,6.9925676 4.5259453,6.2705812 5.2322104,5.9166935 5.4467769,5.8091811 5.6784377,5.7377677 5.9259083,5.7028499 c 0.090364,-0.01275 0.4250377,-0.01275 0.5154012,0 0.2476283,0.03494 0.4440004,0.095477 0.6671977,0.2056806 0.3399872,0.1678687 0.6445124,0.4327295 0.887663,0.772044 0.1675537,0.2338188 0.330656,0.5620875 0.4119097,0.8290297 0.1541026,0.5062789 0.1868337,1.0890821 0.090507,1.6115687 -0.204792,1.1108061 -0.973441,2.0058471 -2.2655558,2.6380891 -0.069897,0.0342 -0.6052436,0.309769 -1.1896595,0.612374 C 4.4589562,12.67424 3.9394952,12.941741 3.8890143,12.96608 3.4925624,13.157234 3.05419,13.245286 2.6111012,13.222762 Z M 8.6099745,10.511089 C 8.6964513,10.378482 8.8436188,10.085708 8.914701,9.9048706 8.9578971,9.7949757 9.0249734,9.5964212 9.0355826,9.547046 c 0.00266,-0.012352 0.00859,-0.02557 0.013197,-0.029374 0.0046,-0.0038 0.5310096,-0.2775577 1.1697894,-0.608341 0.63878,-0.3307833 1.186835,-0.6159228 1.2179,-0.6336435 0.258773,-0.1476092 0.476716,-0.3506114 0.642394,-0.5983547 0.166729,-0.2493147 0.266313,-0.5097458 0.312498,-0.8172429 0.0152,-0.1012157 0.01695,-0.3998451 0.0029,-0.4995106 C 12.344996,6.0103195 12.220466,5.7049484 12.015799,5.4324558 11.87573,5.2459694 11.673152,5.0648663 11.468242,4.9429437 11.435235,4.9233046 10.245399,4.3098442 8.8241624,3.5796987 L 6.2400954,2.2521616 6.234073,2.1935641 c -0.00711,-0.069187 0.0046,-0.3267158 0.020401,-0.4487647 0.010272,-0.079328 0.037531,-0.2359572 0.041812,-0.2402561 0.00193,-0.00194 5.276648,2.7059838 5.419066,2.7820313 0.691384,0.3691803 1.184583,1.0350365 1.333705,1.8006036 0.03827,0.196489 0.04622,0.2847934 0.04622,0.5134534 0,0.2335007 -0.0082,0.3211563 -0.04907,0.5259951 -0.151376,0.7583723 -0.63885,1.4138493 -1.327325,1.7847828 -0.08164,0.043987 -2.9581005,1.5347595 -3.0813844,1.5969795 l -0.038399,0.01938 z M 4.612586,5.4197897 C 4.3801488,5.0273288 4.2460059,4.6312984 4.1986945,4.1978564 4.1830294,4.0543424 4.183112,3.7825636 4.1988613,3.6352888 4.2835656,2.8433968 4.6820438,2.0411686 5.3614217,1.2947862 5.5080663,1.1336784 5.8574712,0.79684517 5.8675212,0.80689565 c 0.00112,0.001116 -0.00766,0.0234036 -0.019508,0.0495284 C 5.8117863,0.93632035 5.7505123,1.1256028 5.7175352,1.2594845 5.5231344,2.0487152 5.6144773,2.891109 5.9820389,3.6988319 6.1918751,4.1599502 6.5178588,4.6403078 6.9014015,5.0535707 7.02586,5.1876729 7.0476776,5.2135296 7.0308434,5.2069751 6.982255,5.1880569 6.7874459,5.1369364 6.6951869,5.1188946 6.5041438,5.0815351 6.4028137,5.0723393 6.1836083,5.0724677 c -0.224888,1.251e-4 -0.3284278,0.00988 -0.5228887,0.04921 -0.313329,0.063378 -0.6175385,0.1820642 -0.8951243,0.3492288 -0.045202,0.027221 -0.084715,0.049493 -0.087806,0.049493 -0.00309,0 -0.032434,-0.045275 -0.065207,-0.1006099 z"
       id="path50" />
  </g>
</svg>
