<?xml version="1.0" encoding="UTF-8" standalone="no"?>
<svg
   xmlns:dc="http://purl.org/dc/elements/1.1/"
   xmlns:cc="http://creativecommons.org/ns#"
   xmlns:rdf="http://www.w3.org/1999/02/22-rdf-syntax-ns#"
   xmlns:svg="http://www.w3.org/2000/svg"
   xmlns="http://www.w3.org/2000/svg"
   xmlns:sodipodi="http://sodipodi.sourceforge.net/DTD/sodipodi-0.dtd"
   xmlns:inkscape="http://www.inkscape.org/namespaces/inkscape"
   width="62.638mm"
   height="35.056999mm"
   viewBox="0 0 62.638 35.056999"
   version="1.1"
   id="svg8"
   inkscape:version="1.0 (4035a4fb49, 2020-05-01)"
   sodipodi:docname="bism.svg">
  <defs
     id="defs2" />
  <sodipodi:namedview
     id="base"
     pagecolor="#ffffff"
     bordercolor="#666666"
     borderopacity="1.0"
     inkscape:pageopacity="0.0"
     inkscape:pageshadow="2"
     inkscape:zoom="0.7"
     inkscape:cx="164.87062"
     inkscape:cy="311.131"
     inkscape:document-units="mm"
     inkscape:current-layer="layer1"
     inkscape:document-rotation="0"
     showgrid="false"
     inkscape:window-width="1600"
     inkscape:window-height="837"
     inkscape:window-x="-8"
     inkscape:window-y="-8"
     inkscape:window-maximized="1" />
  <metadata
     id="metadata5">
    <rdf:RDF>
      <cc:Work
         rdf:about="">
        <dc:format>image/svg+xml</dc:format>
        <dc:type
           rdf:resource="http://purl.org/dc/dcmitype/StillImage" />
        <dc:title></dc:title>
      </cc:Work>
    </rdf:RDF>
  </metadata>
  <g
     inkscape:label="Layer 1"
     inkscape:groupmode="layer"
     id="layer1">
    <path
       style="fill:#ffffff;stroke-width:0.264583;fill-opacity:1"
       d="m 27.255053,31.495173 c -0.0432,-4.95452 0.20922,-7.35653 1.03627,-9.8604 0.8878,-2.68777 1.96351,-4.00502 4.21348,-5.15957 l 1.94303,-0.99705 1.33969,0.46788 c 1.09236,0.38151 2.170092,0.46318 5.837612,0.4424 3.97612,-0.0225 4.80485,-0.10693 7.14375,-0.72744 5.30496,-1.40742 10.39303,-4.54487 11.90625,-7.34173 0.43656,-0.80689 1.0764,-1.816 1.42187,-2.24246 0.60856,-0.75123 0.6221,-0.75478 0.43471,-0.11392 -0.10637,0.3638 -0.41248,1.16835 -0.68025,1.78788 -1.68382,3.8959 -7.35566,8.20223 -13.21488,10.03337 -2.82703,0.88351 -7.84449,1.49975 -10.5008,1.2897 -1.545262,-0.1222 -2.319652,-0.0756 -2.700782,0.16239 -0.45807,0.28607 -0.62495,0.24858 -1.16906,-0.26259 -1.40603,-1.32089 -3.56831,-0.91785 -4.674,0.87121 -0.81519,1.319 -1.5182,5.08513 -1.84715,9.8955 -0.15555,2.27484 -0.32056,4.61233 -0.36667,5.19441 -0.0461,0.58208 -0.10149,-0.96573 -0.12307,-3.43958 z m -11.31713,-4.06444 c 0.1058,-0.17119 0.78182,-0.60995 1.50228,-0.97504 0.86432,-0.43798 1.63976,-1.12291 2.27956,-2.01345 0.55453,-0.77187 1.34298,-1.50566 1.84172,-1.71405 0.97574,-0.40768 1.05212,-0.62478 1.24424,-3.53615 0.072,-1.0914 0.31764,-2.46062 0.54583,-3.0427 0.40475,-1.03248 0.41095,-0.98765 0.2535,1.83415 -0.23159,4.15088 -0.84094,5.60861 -2.66261,6.36976 -0.53215,0.22234 -1.04604,0.7399 -1.3751,1.38492 -0.7006,1.37329 -1.04991,1.62387 -2.55036,1.82953 -0.94229,0.12916 -1.22162,0.0937 -1.07906,-0.13697 z M 0.00185212,21.837883 c -0.0541,-7.84086 1.07034998,-11.27116 4.24727998,-12.95651 0.6792,-0.36032 1.56498,-1.18467 2.17,-2.01952 0.95834,-1.32239 2.52294,-2.62058 3.35432,-2.78317 0.20144,-0.0394 0.6359499,0.0198 0.9655799,0.13164 0.62624,0.21239 2.44338,-0.67479 2.44338,-1.19294 0,-0.14108 -0.42946,-0.43594 -0.95435,-0.65526 -0.87813,-0.36691 -0.99745,-0.36055 -1.49387,0.0797 -0.38624,0.34249 -0.50499,0.37023 -0.41802,0.0976 0.0668,-0.20943 0.4324,-0.61291 0.81241,-0.89663 0.65767,-0.49102 0.74308,-0.49498 1.77461,-0.0822 0.596021,0.23849 1.329321,0.43361 1.629541,0.43361 0.82153,0 0.54106,0.40178 -1.487001,2.13025 -1.7588,1.49898 -1.90034,1.56713 -2.94191,1.41653 -1.1224799,-0.16229 -1.8235999,0.0703 -2.6236599,0.87036 -0.42609,0.42608 -0.40086,0.46893 0.44238,0.75128 1.87947,0.62931 0.86893,3.03198 -1.27654,3.03514 -1.34764,0.002 -2.95378,0.46897 -3.88184,1.12865 -1.52938,1.08711 -2.05983998,3.44435 -2.51433998,11.17299 l -0.21783,3.70417 z m 42.80269288,3.62346 -0.67267,-0.59316 0.49859,-0.85369 c 0.56715,-0.9711 0.97088,-1.06445 1.59949,-0.36984 0.54652,0.60389 0.55333,1.08566 0.026,1.83852 -0.50618,0.72267 -0.60885,0.72113 -1.45141,-0.0218 z m -17.562842,-1.37451 c 0.063,-0.43656 0.2281,-1.92484 0.36688,-3.30729 0.22914,-2.28265 0.72457,-4.68461 0.91922,-4.45658 0.0427,0.05 -0.0189,1.48519 -0.13696,3.18924 -0.1499,2.16417 -0.37275,3.4405 -0.73915,4.23334 -0.45663,0.98807 -0.50971,1.03227 -0.40999,0.34129 z M 5.5956121,23.847383 c -1.41249,-0.63848 -1.75928,-1.45341 -1.61721,-3.80044 0.0799,-1.31923 0.33947,-2.54159 0.73121,-3.44264 0.77058,-1.77246 0.95598,-1.66102 0.26444,0.15896 -0.91606,2.41087 -0.62438,3.77978 0.94512,4.43556 3.39889,1.42015 7.1216999,-1.36387 7.2828999,-5.44636 0.0842,-2.13226 0.2114,-2.38125 1.216521,-2.38125 0.75325,0 1.22877,-0.27077 2.50714,-1.42764 1.53433,-1.38848 1.59805,-1.41743 2.32361,-1.05547 3.16882,1.58082 11.75774,0.91029 16.74862,-1.30753 1.667562,-0.74103 6.553212,-3.82127 6.553212,-4.13159 0,-0.2867 -1.25503,-0.80902 -1.94391,-0.80902 -0.32785,0 -0.73897,0.14288 -0.91359,0.3175 -0.22945,0.22945 -0.3175,0.23361 -0.3175,0.015 0,-0.43303 1.0749,-1.12625 1.74635,-1.12625 0.31365,0 1.01962,0.18775 1.56883,0.41722 0.5492,0.22947 1.21858,0.35968 1.48752,0.28935 0.85657,-0.224 0.54257,0.57359 -0.50322,1.27822 -0.54571,0.36769 -2.06004,1.50057 -3.36519,2.51751 -5.375902,4.18875 -11.263722,6.08395 -17.841782,5.743 -2.30455,-0.11945 -2.88546,-0.0723 -3.26148,0.26465 -0.4143,0.37128 -0.47355,0.36819 -0.62737,-0.0327 -0.0934,-0.24347 -0.52629,-0.62698 -0.96191,-0.85225 -0.76645,-0.39635 -0.81883,-0.38402 -1.62158,0.38146 -0.45626,0.43508 -1.06768,0.83341 -1.35872,0.88518 -0.40853,0.0727 -0.62581,0.48554 -0.95313,1.81113 -1.113971,4.51147 -3.287191,7.21192 -6.0671109,7.53899 -0.74178,0.0873 -1.49459,-0.002 -2.02177,-0.24061 z m 11.1281709,-0.0853 c 0.37969,-0.44876 0.46408,-0.84708 0.35376,-1.66961 l -0.14489,-1.08023 0.83686,0.18131 0.83686,0.18132 -0.50403,-0.56223 c -0.62185,-0.69365 -0.89869,-0.70279 -1.59558,-0.0527 -0.54018,0.50393 -0.55396,0.50288 -1.24499,-0.0948 l -0.69876,-0.60436 0.52631,-0.83125 c 0.63835,-1.00821 1.0613,-1.04531 1.76197,-0.15455 l 0.53229,0.67669 0.44339,-0.67669 c 0.24386,-0.37218 0.58983,-0.6767 0.76882,-0.6767 0.43418,0 1.20121,0.86869 1.20121,1.3604 0,0.44617 -1.33553,1.8146 -1.77097,1.8146 -0.15775,0 -0.36192,0.40038 -0.45372,0.88972 -0.0918,0.48934 -0.43247,1.11442 -0.75705,1.38906 l -0.59014,0.49935 z m -8.2827009,-6.66146 c -0.58968,-0.4533 -0.61357,-0.5567 -0.30226,-1.30826 0.51971,-1.25468 0.9806,-1.53008 1.60897,-0.96141 0.5989599,0.54205 0.6723799,1.63023 0.15589,2.31061 -0.44058,0.5804 -0.66238,0.57419 -1.4626,-0.0409 z m 33.8693129,-5.6476 2.22515,-2.18281 0.26459,0.79375 c 0.21356,0.64069 0.43517,0.81009 1.14922,0.8785 1.06945,0.10246 1.63816,-0.35687 2.31986,-1.87369 l 0.49967,-1.11179 0.13229,0.9212 c 0.12224,0.85121 0.20265,0.9212 1.05833,0.9212 0.88195,0 0.93234,-0.0504 1.05834,-1.05834 0.12837,-1.02697 0.90611,-2.77812 1.23384,-2.77812 0.0891,0 0.0839,0.66365 -0.0114,1.47479 -0.39081,3.32515 -2.91051,6.21576 -4.13358,4.74205 -0.2864,-0.3451 -0.46591,-0.27505 -1.35608,0.52916 -0.56429,0.5098 -1.19862,0.92691 -1.40964,0.92691 -0.75441,0 -1.71642,-0.61628 -1.92126,-1.23079 l -0.20839,-0.62517 -1.37798,0.92798 c -0.75788,0.51039 -1.46126,0.92798 -1.56304,0.92798 -0.10179,0 0.81625,-0.98226 2.04008,-2.18281 z m 10.67009,0.63048 c 0.078,-0.12619 0.32808,-1.40611 0.55576,-2.84428 0.36882,-2.32969 1.12245,-5.0153 1.34495,-4.79281 0.0455,0.0455 -0.089,1.30711 -0.29901,2.8035 -0.34441,2.45419 -1.1589,5.06301 -1.58071,5.06301 -0.0895,0 -0.099,-0.10324 -0.021,-0.22942 z M 9.3496121,11.777833 c 0.0919,-0.14878 0.8720499,-0.62632 1.7335599,-1.06121 1.05394,-0.53202 1.79377,-1.13432 2.26145,-1.84103 0.405951,-0.61343 1.117711,-1.2368 1.711091,-1.4986 1.21275,-0.53507 1.22864,-0.56981 1.45897,-3.1907 0.16566,-1.88505 1.12369,-5.15383997 1.14652,-3.91190997 0.0352,1.91558997 -0.55649,5.34557997 -1.14327,6.62726997 -0.56085,1.22506 -0.84633,1.52847 -1.83819,1.95363 -0.84221,0.36101 -1.346081,0.80911 -1.782041,1.58481 -0.44983,0.80035 -0.85291,1.14956 -1.55062,1.34339 -1.23021,0.34175 -2.2104599,0.33897 -1.9974699,-0.006 z m 9.4106009,-2.83835 c 0.12673,-0.5457 0.23325,-1.68209 0.23672,-2.52531 0.006,-1.34993 0.73519,-5.10224 0.95029,-4.88714 0.24261,0.24261 -0.43538,6.56443 -0.79495,7.41245 -0.23139,0.5457 -0.4661,0.99219 -0.52159,0.99219 -0.0555,0 0.003,-0.44649 0.12953,-0.99219 z m 8.5564,0.39687 c 0.0148,-0.41968 -0.15029,-0.61969 -0.55967,-0.67794 -0.65716,-0.0935 -0.595,-0.49178 0.27169,-1.74097 0.49583,-0.71464 4.73663,-2.96876 6.5267,-3.46915 0.64857,-0.1813 0.64557,-0.16859 -0.1538,0.65212 -0.44839,0.46036 -1.73414,1.23647 -2.85722,1.72469 -1.12308,0.48823 -2.33921,1.08244 -2.70251,1.32049 l -0.66055,0.4328 0.55857,0.4523 c 0.47294,0.38297 0.51635,0.56333 0.28317,1.17664 -0.33313,0.8762 -0.73534,0.94967 -0.70638,0.12902 z m 19.997062,-3.06887 c 0,-0.3548 0.18371,-0.51419 0.59531,-0.51649 0.32742,-0.002 0.92274,-0.0576 1.32292,-0.12389 0.40018,-0.0663 0.7276,-0.0325 0.7276,0.0752 0,0.36309 -0.65557,0.7197 -1.65364,0.89955 -0.86694,0.15621 -0.99219,0.114 -0.99219,-0.33439 z M 22.442833,4.922763 c 0,-0.45573 0.11545,-0.52849 0.6326,-0.39869 0.34792,0.0873 0.70892,0.0353 0.80222,-0.1157 0.0933,-0.15096 0.35642,-0.20279 0.58473,-0.11518 0.22831,0.0876 0.52033,-0.007 0.64893,-0.20999 0.19101,-0.30165 0.23458,-0.29041 0.23789,0.0613 0.006,0.61505 -0.49429,0.93785 -1.78189,1.15022 -1.0258,0.16919 -1.12448,0.13654 -1.12448,-0.372 z"
       id="path847" />
  </g>
</svg>
